<?xml version="1.0" encoding="UTF-8"?>
<svg xmlns="http://www.w3.org/2000/svg" viewBox="0 0 300 300">
  <g id="text" fill="#19CEDA" transform="matrix(2.7654713423578117,0,0,2.7654713423578117,92.44009259291211,129.77057697241105)">
    <path d="M1.11 12.29L1.11 2.69L3.08 2.69L5.38 9.24L5.38 9.24Q5.50 9.60 5.63 10.07L5.63 10.07L5.63 10.07Q5.77 10.54 5.81 10.68L5.81 10.68L5.87 10.68L5.87 10.68Q5.91 10.53 6.04 10.04L6.04 10.04L6.04 10.04Q6.17 9.55 6.29 9.24L6.29 9.24L8.60 2.69L10.56 2.69L10.56 12.29L9.23 12.29L9.23 5.95L9.25 4.16L9.16 4.16L9.16 4.16Q9.14 4.26 9.07 4.56L9.07 4.56L9.07 4.56Q9.00 4.86 8.92 5.08L8.92 5.08L6.31 12.29L5.21 12.29L2.65 5.08L2.65 5.08Q2.58 4.89 2.50 4.57L2.50 4.57L2.50 4.57Q2.42 4.26 2.41 4.16L2.41 4.16L2.32 4.16L2.35 5.95L2.35 12.29L1.11 12.29ZM15.72 12.46L15.72 12.46Q13.94 12.46 13.08 11.52L13.08 11.52L13.08 11.52Q12.21 10.58 12.21 8.61L12.21 8.61L12.21 8.61Q12.21 6.64 13.08 5.70L13.08 5.70L13.08 5.70Q13.94 4.76 15.72 4.76L15.72 4.76L15.72 4.76Q17.32 4.76 18.11 5.61L18.11 5.61L18.11 5.61Q18.90 6.45 18.90 8.33L18.90 8.33L18.90 8.95L13.48 8.95L13.48 8.95Q13.55 10.22 14.09 10.83L14.09 10.83L14.09 10.83Q14.63 11.44 15.72 11.44L15.72 11.44L15.72 11.44Q16.60 11.44 17.15 11.03L17.15 11.03L17.15 11.03Q17.70 10.63 17.70 9.79L17.70 9.79L18.90 9.79L18.90 9.79Q18.90 11.07 18.01 11.77L18.01 11.77L18.01 11.77Q17.12 12.46 15.72 12.46L15.72 12.46ZM13.51 7.92L17.61 7.92L17.61 7.92Q17.61 5.78 15.72 5.78L15.72 5.78L15.72 5.78Q14.67 5.78 14.15 6.29L14.15 6.29L14.15 6.29Q13.62 6.79 13.51 7.92L13.51 7.92ZM23.18 12.46L23.18 12.46Q21.50 12.46 20.72 11.53L20.72 11.53L20.72 11.53Q19.94 10.60 19.94 8.61L19.94 8.61L19.94 8.61Q19.94 6.64 20.73 5.70L20.73 5.70L20.73 5.70Q21.52 4.76 23.18 4.76L23.18 4.76L23.18 4.76Q24.70 4.76 25.40 5.49L25.40 5.49L25.40 5.49Q26.10 6.22 26.10 7.66L26.10 7.66L24.84 7.66L24.84 7.66Q24.84 6.66 24.48 6.22L24.48 6.22L24.48 6.22Q24.12 5.78 23.18 5.78L23.18 5.78L23.18 5.78Q22.16 5.78 21.69 6.45L21.69 6.45L21.69 6.45Q21.21 7.11 21.21 8.61L21.21 8.61L21.21 8.67L21.21 8.67Q21.21 10.15 21.67 10.79L21.67 10.79L21.67 10.79Q22.13 11.44 23.18 11.44L23.18 11.44L23.18 11.44Q24.11 11.44 24.51 10.97L24.51 10.97L24.51 10.97Q24.91 10.50 24.91 9.56L24.91 9.56L26.10 9.56L26.10 9.56Q26.10 10.82 25.38 11.64L25.38 11.64L25.38 11.64Q24.67 12.46 23.18 12.46L23.18 12.46ZM27.38 12.29L27.38 2.17L28.62 2.17L28.62 5.75L28.71 5.75L28.71 5.75Q29.48 4.76 31.04 4.76L31.04 4.76L31.04 4.76Q33.33 4.76 33.33 7.27L33.33 7.27L33.33 12.29L32.10 12.29L32.10 7.35L32.10 7.35Q32.10 6.47 31.71 6.13L31.71 6.13L31.71 6.13Q31.32 5.78 30.58 5.78L30.58 5.78L30.58 5.78Q30.04 5.78 29.60 6.04L29.60 6.04L29.60 6.04Q29.15 6.30 28.88 6.79L28.88 6.79L28.88 6.79Q28.62 7.28 28.62 7.94L28.62 7.94L28.62 12.29L27.38 12.29ZM37.17 12.46L37.17 12.46Q36.22 12.46 35.48 12.01L35.48 12.01L35.48 12.01Q34.73 11.56 34.73 10.39L34.73 10.39L34.73 10.39Q34.73 8.97 35.99 8.45L35.99 8.45L35.99 8.45Q37.25 7.92 39.63 7.92L39.63 7.92L39.63 7.11L39.63 7.11Q39.63 6.47 39.27 6.13L39.27 6.13L39.27 6.13Q38.91 5.78 37.95 5.78L37.95 5.78L37.95 5.78Q37.06 5.78 36.67 6.12L36.67 6.12L36.67 6.12Q36.29 6.45 36.29 6.94L36.29 6.94L36.29 7.11L35.10 7.11L35.10 7.11Q35.08 7.03 35.08 6.80L35.08 6.80L35.08 6.80Q35.08 5.82 35.90 5.29L35.90 5.29L35.90 5.29Q36.71 4.76 38.07 4.76L38.07 4.76L38.07 4.76Q39.44 4.76 40.15 5.33L40.15 5.33L40.15 5.33Q40.87 5.91 40.87 6.96L40.87 6.96L40.87 10.95L40.87 10.95Q40.87 11.20 41.01 11.32L41.01 11.32L41.01 11.32Q41.15 11.44 41.36 11.44L41.36 11.44L41.92 11.44L41.92 12.24L41.92 12.24Q41.55 12.40 40.96 12.40L40.96 12.40L40.96 12.40Q40.49 12.40 40.17 12.12L40.17 12.12L40.17 12.12Q39.84 11.83 39.73 11.35L39.73 11.35L39.63 11.35L39.63 11.35Q39.26 11.87 38.61 12.17L38.61 12.17L38.61 12.17Q37.95 12.46 37.17 12.46L37.17 12.46ZM37.49 11.44L37.49 11.44Q38.04 11.44 38.53 11.21L38.53 11.21L38.53 11.21Q39.02 10.99 39.33 10.55L39.33 10.55L39.33 10.55Q39.63 10.11 39.63 9.48L39.63 9.48L39.63 8.95L39.63 8.95Q37.83 8.95 36.93 9.23L36.93 9.23L36.93 9.23Q36.02 9.52 36.02 10.32L36.02 10.32L36.02 10.32Q36.02 10.92 36.39 11.18L36.39 11.18L36.39 11.18Q36.76 11.44 37.49 11.44L37.49 11.44ZM42.95 12.29L42.95 4.93L43.89 4.93L44.03 5.92L44.13 5.92L44.13 5.92Q44.94 4.76 46.61 4.76L46.61 4.76L46.61 4.76Q47.71 4.76 48.31 5.35L48.31 5.35L48.31 5.35Q48.90 5.95 48.90 7.27L48.90 7.27L48.90 12.29L47.67 12.29L47.67 7.35L47.67 7.35Q47.67 6.47 47.28 6.13L47.28 6.13L47.28 6.13Q46.89 5.78 46.14 5.78L46.14 5.78L46.14 5.78Q45.61 5.78 45.16 6.04L45.16 6.04L45.16 6.04Q44.72 6.30 44.45 6.79L44.45 6.79L44.45 6.79Q44.18 7.28 44.18 7.94L44.18 7.94L44.18 12.29L42.95 12.29ZM50.74 3.54L50.74 2.17L51.97 2.17L51.97 3.54L50.74 3.54ZM50.74 12.29L50.74 4.93L51.97 4.93L51.97 12.29L50.74 12.29ZM55.85 12.46L55.85 12.46Q54.89 12.46 54.15 12.01L54.15 12.01L54.15 12.01Q53.41 11.56 53.41 10.39L53.41 10.39L53.41 10.39Q53.41 8.97 54.67 8.45L54.67 8.45L54.67 8.45Q55.93 7.92 58.31 7.92L58.31 7.92L58.31 7.11L58.31 7.11Q58.31 6.47 57.95 6.13L57.95 6.13L57.95 6.13Q57.58 5.78 56.63 5.78L56.63 5.78L56.63 5.78Q55.73 5.78 55.35 6.12L55.35 6.12L55.35 6.12Q54.96 6.45 54.96 6.94L54.96 6.94L54.96 7.11L53.77 7.11L53.77 7.11Q53.76 7.03 53.76 6.80L53.76 6.80L53.76 6.80Q53.76 5.82 54.57 5.29L54.57 5.29L54.57 5.29Q55.38 4.76 56.74 4.76L56.74 4.76L56.74 4.76Q58.11 4.76 58.83 5.33L58.83 5.33L58.83 5.33Q59.54 5.91 59.54 6.96L59.54 6.96L59.54 10.95L59.54 10.95Q59.54 11.20 59.68 11.32L59.68 11.32L59.68 11.32Q59.82 11.44 60.03 11.44L60.03 11.44L60.59 11.44L60.59 12.24L60.59 12.24Q60.23 12.40 59.64 12.40L59.64 12.40L59.64 12.40Q59.16 12.40 58.84 12.12L58.84 12.12L58.84 12.12Q58.52 11.83 58.41 11.35L58.41 11.35L58.31 11.35L58.31 11.35Q57.93 11.87 57.28 12.17L57.28 12.17L57.28 12.17Q56.63 12.46 55.85 12.46L55.85 12.46ZM56.17 11.44L56.17 11.44Q56.71 11.44 57.20 11.21L57.20 11.21L57.20 11.21Q57.69 10.99 58.00 10.55L58.00 10.55L58.00 10.55Q58.31 10.11 58.31 9.48L58.31 9.48L58.31 8.95L58.31 8.95Q56.50 8.95 55.60 9.23L55.60 9.23L55.60 9.23Q54.70 9.52 54.70 10.32L54.70 10.32L54.70 10.32Q54.70 10.92 55.07 11.18L55.07 11.18L55.07 11.18Q55.44 11.44 56.17 11.44L56.17 11.44Z"></path>
  </g>
  <g id="icon" stroke="#19CEDA" fill="none" transform="matrix(1.7355882276222543,0,0,1.7355882276222543,16.130454655300568,104.1370840644166)">
    <path stroke-width=".119" stroke-miterlimit="10" d="M17.551 17.977l16.931 16.931"></path>
    <circle cx="26" cy="25.98" r="2.247"></circle>
    <circle cx="36" cy="36.475" r="2.246"></circle>
    <circle cx="16" cy="36.475" r="2.247"></circle>
    <circle cx="36" cy="16.375" r="2.246"></circle>
    <circle cx="16" cy="16.375" r="2.247"></circle>
    <path stroke-width=".119" stroke-miterlimit="10" d="M34.466 17.977L17.534 34.908"></path>
  </g>
</svg>